# Blender 5.0.1
# www.blender.org
mtllib wall_level_3_4.mtl
o Cubo
v -2.074940 -1.000000 0.257477
v -2.074940 1.000000 0.257477
v 2.270998 -1.000000 -0.054658
v 2.270998 1.000000 -0.054658
v -0.230435 -1.000000 -0.783660
v -0.289121 1.000000 -0.708672
vn 0.4839 -0.0093 0.8751
vn -0.2635 -0.0219 0.9644
vt 0.005111 0.003744
vt -0.000000 0.368560
vt 0.485050 0.355882
vt 0.489763 0.000000
vt 0.005111 1.000000
vt 0.489763 0.996256
s 0
usemtl Materiais
f 1/1/1 5/2/1 6/3/1 2/4/1
f 5/2/2 3/5/2 4/6/2 6/3/2
o Cubo.001
v 0.453536 -1.000000 1.236622
v -2.074940 -1.000000 0.257477
v 2.270998 -1.000000 -0.054658
v -0.230435 -1.000000 -0.783660
vn -0.0000 1.0000 -0.0000
vt 0.125000 0.500000
vt 0.125000 0.750000
vt 0.375000 0.750000
vt 0.375000 0.500000
s 0
f 8/7/3 7/8/3 9/9/3 10/10/3
