# Blender 5.0.1
# www.blender.org
mtllib wall_level_4.mtl
o Paredes
v -2.266860 -1.000000 0.637786
v -2.266860 1.000000 0.637786
v 2.017779 -1.000000 -0.152985
v 2.017779 1.000000 -0.152985
v 0.060563 -1.000000 -0.664212
v 0.060563 1.000000 -0.664212
v -0.276978 -1.000000 -0.500704
v -0.276978 1.000000 -0.500704
v 2.374470 1.000000 -0.070781
v 2.374470 -1.000000 -0.070781
vn 0.4360 -0.0000 0.9000
vn -0.2527 -0.0000 0.9675
vn 0.4966 -0.0000 0.8680
vn -0.2246 -0.0000 0.9745
vt 0.375000 0.463459
vt 0.375000 0.500000
vt 0.625000 0.500000
vt 0.625000 0.463459
vt 0.375000 0.750000
vt 0.625000 0.750000
vt 0.375000 0.250000
vt 0.625000 0.250000
s 0
f 7/1/1 5/2/1 6/3/1 8/4/1
f 5/2/2 3/5/2 4/6/2 6/3/2
f 1/7/3 7/1/3 8/4/3 2/8/3
f 3/5/4 10/5/4 9/6/4 4/6/4
o Chão
v -0.161497 -1.000000 1.502344
v -2.266860 -1.000000 0.637786
v 2.017779 -1.000000 -0.152985
v 0.060563 -1.000000 -0.664212
v -0.276978 -1.000000 -0.500704
v 1.713068 -1.000000 0.096878
v 2.374470 -1.000000 -0.070781
v 2.141378 -1.000000 0.196403
vn -0.0000 1.0000 -0.0000
vt 0.338459 0.500000
vt 0.338459 0.750000
vt 0.375000 0.750000
vt 0.375000 0.500000
vt 0.125000 0.500000
vt 0.125000 0.750000
s 0
f 15/9/5 16/10/5 13/11/5 14/12/5
f 12/13/5 11/14/5 16/10/5 15/9/5
f 16/10/5 18/10/5 17/11/5 13/11/5
